<svg preserveAspectRatio="none" width="100%" height="100%" overflow="visible" style="display: block;" viewBox="0 0 505.477 355.867" fill="none" xmlns="http://www.w3.org/2000/svg">
<g id="HeroIllustration" clip-path="url(#clip0_0_45)">
<g id="Ellipse 1" filter="url(#filter0_f_0_45)">
<ellipse cx="270.477" cy="190.112" rx="181" ry="165.5" fill="url(#paint0_radial_0_45)" fill-opacity="0.56"/>
</g>
<path id="Vector" d="M132.179 153.551C130.954 142.24 131.714 129.607 131.52 118.131C131.456 114.418 130.574 88.3081 132.719 87.0972C142.502 81.5727 154.672 74.7008 165.149 70.8738C166.992 70.2005 184.713 71.9754 187.767 72.2167L226.862 74.9894L362.965 84.9677C379.149 86.2464 395.874 87.0302 412.027 88.7045C415.214 88.6936 431.67 90.04 433.471 91.5719C434.415 93.8659 434.497 98.2985 434.427 100.811C433.995 117.056 435.27 134.348 434.471 150.495C434.907 180.173 434.074 210.175 434.197 239.831C434.145 246.974 434.5 257.667 434.163 264.373C430.106 268.496 425.741 272.096 421.683 276.071C419.592 278.107 417.58 279.918 415.397 281.854C412.342 284.685 406.212 291.737 401.968 291.578C394.424 291.297 386.635 290.242 379.156 289.197L357.842 286.423C345.952 284.805 332.242 283.664 320.608 281.709C308.808 280.274 296.41 278.992 284.664 277.388C272.162 275.517 258.308 274.06 245.674 272.553L204.002 267.396C197.182 266.612 190.314 265.419 183.382 264.827C180.364 264.57 176.716 263.579 173.479 263.33C170.674 272.978 167.599 282.547 164.258 292.021C162.708 296.554 159.956 303.811 158.804 308.202C156.084 308.278 153.114 308.424 150.415 308.433L149.753 313.39C155.207 314.271 166.371 316.811 169.373 321.635C171.668 325.322 171.562 327.331 171.442 331.356C199.398 332.648 239.519 334.499 265.323 322.099C245.541 308.275 263.499 291.816 274.698 299.985C276.713 301.426 278.047 303.635 278.378 306.089C279.326 313.017 273.59 318.213 268.776 322.065C272.241 323.294 276.449 324.813 280.071 325.372C299.24 328.32 317.787 323.24 336.454 321.038C344.958 320.062 353.537 319.9 362.068 320.56C364.822 320.798 369.307 321.019 371.645 322.235L371.879 322.965C369.989 323.337 367.987 323.123 366.111 322.785C334.717 317.15 296.48 337.071 266.975 323.088C236.736 337.871 197.516 333.647 164.734 333.235C158.418 333.157 132.622 333.827 127.89 332.104C125.976 327.763 133.966 313.646 134.701 308.948C133.904 308.038 131.948 308.55 132.287 307.088C134.189 298.883 138.34 290.69 139.865 282.401C137.973 283.406 131.066 287.165 129.445 288.347C127.662 297.347 127.357 305.327 124.894 314.798C119.366 331.299 112.956 332.746 96.5909 330.939C89.6657 330.171 82.5869 329.053 75.6779 328.222C76.2335 325.429 76.7537 322.628 77.2389 319.819L74.247 319.019C70.3295 322.984 64.2338 330.797 59.4813 332.942C55.4804 334.145 46.6396 334.531 42.8518 333.226C38.75 331.811 41.6313 325.887 42.9096 323.183C32.9629 322.522 22.7333 322.987 12.7594 322.687C10.1489 322.608 1.80202 323.499 0.0038425 322.046L0.295693 321.493C4.27455 319.553 37.5211 322.138 43.6105 322.295C47.8424 315.595 53.3992 308.878 58.0603 302.419C60.2811 299.337 62.699 297.755 66.2493 296.564C72.1514 299.098 72.538 298.433 77.6952 302.8C75.1931 301.824 72.1024 300.869 69.5177 300.004C68.6702 309.599 57.2742 325.546 49.6835 332.01C54.59 331.899 59.3026 332.048 62.9081 328.14C63.7345 327.243 65.8604 325.486 66.11 324.441C65.5031 323.644 65.2508 323.442 65.0348 322.498C65.572 321.626 65.2085 321.866 66.0344 321.591L67.2275 322.95C68.0578 323.119 67.7585 323.094 68.6776 322.668C69.3229 320.899 68.186 321.184 68.7173 319.587L69.2445 319.427L70.4546 320.431C71.2275 320.03 72.2394 318.189 72.7739 317.341C74.3968 317.673 76.3166 317.879 77.9796 318.096C78.911 313.636 79.7979 308.904 81.1372 304.566C80.9476 304.475 80.7597 304.38 80.5737 304.282C79.9543 303.953 79.0598 303.606 78.8993 303.072C79.6681 303.169 80.3178 303.309 81.0853 303.204L81.7797 301.795C83.0547 301.128 84.5294 301.625 85.9151 301.95C89.8239 302.863 93.7512 303.574 97.6999 304.291C98.549 300.907 98.9888 297.97 99.515 294.51C93.8431 293.427 91.0566 292.314 86.749 288.176C73.1735 288.104 72.887 288.505 74.2797 275.764C74.3339 275.266 71.325 273.379 70.5405 272.645L70.248 272.368C68.0038 265.37 70.7796 256.092 73.0638 249.156C70.5683 248.043 69.4128 247.236 67.4293 245.383C69.4574 240.705 71.7448 236.142 74.2812 231.717C82.1578 217.891 93.3764 200.047 109.66 195.593C110.409 193.215 111.12 190.826 111.794 188.426C97.4558 185.493 91.6047 170.463 101.556 159.609C98.3977 159.183 94.5725 158.642 92.5845 155.908C89.3479 151.456 90.8128 145.528 94.9846 142.428C97.3398 140.678 100.302 139.954 103.198 140.422C110.018 141.555 111.633 146.902 110.566 152.963C119.387 149.969 123.342 150.258 132.179 153.551Z" fill="var(--fill-0, #FFFEFD)"/>
<path id="Vector_2" d="M132.179 153.551C130.954 142.239 131.714 129.607 131.52 118.131C131.456 114.418 130.574 88.3081 132.719 87.0972C142.502 81.5727 154.672 74.7008 165.149 70.8738C166.992 70.2005 184.713 71.9754 187.767 72.2167L226.862 74.9894L362.965 84.9677C379.149 86.2464 395.874 87.0302 412.027 88.7045C413.211 89.061 418.758 89.8738 419.055 90.1313C415.931 90.129 414.209 89.9901 411.064 90.329C405.353 90.2605 398.77 89.3532 392.999 88.9017L356.556 86.2215L289.104 81.278L254.306 78.7399C246.738 78.2329 239.152 77.9342 231.592 77.304C220.041 76.341 208.464 75.7595 196.922 74.7811C189.481 74.1505 182.069 73.489 174.614 73.0353C171.519 72.8467 168.03 72.3579 164.95 72.7896C161.852 73.2234 138.638 85.1277 134.582 87.4078C170.011 89.3503 205.409 91.8379 240.763 94.8705L326.429 101.147C352.037 103.116 377.671 105.212 403.277 107.18C405.264 107.333 408.126 105.464 409.999 104.643L410.21 105.172C408.572 106.276 405.915 108.322 403.972 108.231C382.112 107.206 359.973 104.928 338.164 103.381L164.132 90.536C156.541 90.0365 141.754 88.4156 133.55 88.2019C133.52 88.2013 133.253 89.187 133.23 89.3507C132.613 93.8474 133.023 98.8899 133.056 103.441L133.286 133.792C133.322 139.428 133.398 145.042 133.044 150.669C132.972 151.825 132.921 152.974 132.979 154.133C136.005 156.742 136.989 157.867 137.6 162.01C138.116 165.516 138.698 168.994 138.985 172.536C143.085 174.093 144.367 177.167 139.728 179.108C138.93 184.947 138.185 186.493 133.697 190.544L133.524 193.277L133.596 199.271C134.843 199.791 138.058 201.053 138.91 201.906C145.76 205.949 154.211 211.968 161.021 216.463C160.484 217.407 159.966 218.516 159.479 219.499C161.606 220.535 163.476 221.578 165.534 222.733C168.577 219.547 179.731 210.688 183.518 207.67C184.453 202.763 184.713 201.221 187.636 197.13C185.92 196.77 183.584 196.503 182.253 195.505C180.389 192.227 183.825 190.881 186.519 191.491C188.826 192.014 191.079 192.372 193.433 192.615C197.111 190.355 198.237 190.944 201.233 193.634L203.293 193.762C208.901 194.421 209.272 194.598 213.607 198.206C211.656 198.747 210.22 199.064 208.43 200.055L202.383 199.26C204.227 202.192 205.884 204.615 202.078 206.833L200.855 207.168C198.558 207.942 197.611 210.786 195.849 212.261C194.614 213.264 191.547 214 190.583 215.21C185.861 221.13 181.732 227.003 176.592 232.61C168.62 241.312 162.006 240.43 151.982 235.652C146.045 247.334 146.374 243.633 135.439 239.375C135.063 243.23 134.68 246.697 134.827 250.574C143.101 246.696 157.772 240.523 166.617 243.775C169.526 244.82 171.882 247.008 173.137 249.834C174.906 253.735 174.369 257.915 173.793 262.015C179.086 262.745 184.153 263.082 189.415 263.695L229.528 268.525L270.362 273.687C274.771 274.204 279.436 275.092 283.808 275.418C284.743 276.456 285.094 276.501 286.401 276.751C285.809 276.986 285.276 277.218 284.664 277.388C272.162 275.517 258.308 274.06 245.674 272.553L204.002 267.396C197.182 266.612 190.314 265.419 183.382 264.827C180.364 264.57 176.716 263.579 173.479 263.33C170.674 272.978 167.599 282.547 164.258 292.021C162.708 296.554 159.956 303.811 158.804 308.202C156.084 308.278 153.114 308.424 150.415 308.433L149.753 313.39C155.207 314.271 166.371 316.811 169.373 321.635C171.668 325.322 171.562 327.331 171.442 331.356C199.398 332.648 239.519 334.499 265.323 322.099C245.541 308.275 263.498 291.816 274.698 299.985C276.713 301.426 278.047 303.635 278.378 306.089C279.326 313.017 273.59 318.213 268.776 322.065C272.241 323.294 276.449 324.813 280.071 325.372C299.24 328.32 317.787 323.24 336.454 321.038C344.958 320.062 353.537 319.9 362.068 320.56C364.822 320.798 369.307 321.019 371.645 322.235L371.879 322.965C369.989 323.337 367.986 323.123 366.11 322.785C334.717 317.15 296.48 337.071 266.975 323.088C236.736 337.871 197.516 333.647 164.734 333.235C158.418 333.157 132.622 333.827 127.89 332.104C125.976 327.763 133.966 313.646 134.701 308.948C133.904 308.038 131.948 308.55 132.287 307.088C134.189 298.883 138.34 290.69 139.865 282.401C137.973 283.406 131.066 287.165 129.445 288.347C127.662 297.347 127.357 305.327 124.894 314.798C119.366 331.299 112.956 332.746 96.5909 330.939C89.6657 330.171 82.5869 329.053 75.6779 328.222C76.2335 325.429 76.7537 322.628 77.2389 319.819L74.247 319.019C70.3295 322.984 64.2338 330.797 59.4813 332.942C55.4804 334.145 46.6396 334.531 42.8518 333.226C38.75 331.811 41.6313 325.887 42.9096 323.183C32.9629 322.522 22.7333 322.987 12.7594 322.687C10.1489 322.608 1.80202 323.499 0.0038425 322.046L0.295693 321.493C4.27455 319.553 37.5211 322.138 43.6105 322.295C47.8424 315.595 53.3992 308.878 58.0603 302.419C60.2811 299.337 62.699 297.755 66.2493 296.564C72.1512 299.098 72.538 298.433 77.6952 302.8C75.1931 301.824 72.1024 300.869 69.5177 300.004C68.6702 309.599 57.2742 325.546 49.6835 332.01C54.59 331.899 59.3026 332.048 62.908 328.14C63.7344 327.243 65.8604 325.486 66.11 324.441C65.5031 323.644 65.2508 323.442 65.0348 322.498C65.572 321.626 65.2085 321.866 66.0344 321.591L67.2275 322.95C68.0578 323.119 67.7585 323.094 68.6776 322.668C69.3229 320.899 68.186 321.184 68.7173 319.587L69.2445 319.427L70.4546 320.431C71.2275 320.03 72.2394 318.189 72.7739 317.341C74.3968 317.673 76.3166 317.879 77.9796 318.096C78.911 313.636 79.7979 308.904 81.1371 304.566C80.9476 304.475 80.7597 304.38 80.5737 304.282C79.9543 303.953 79.0598 303.606 78.8993 303.072C79.6681 303.169 80.3178 303.309 81.0853 303.204L81.7797 301.795C83.0547 301.128 84.5294 301.625 85.9151 301.95C89.8239 302.863 93.7512 303.574 97.6999 304.291C98.549 300.907 98.9888 297.97 99.515 294.51C93.8431 293.427 91.0566 292.314 86.749 288.176C73.1735 288.104 72.887 288.505 74.2797 275.764C74.3339 275.266 71.325 273.379 70.5405 272.645L70.248 272.368C68.0038 265.37 70.7796 256.092 73.0638 249.156C70.5682 248.043 69.4128 247.236 67.4293 245.383C69.4574 240.705 71.7448 236.142 74.2812 231.717C82.1578 217.891 93.3764 200.047 109.66 195.593C110.409 193.215 111.12 190.826 111.794 188.426C97.4558 185.493 91.6047 170.463 101.556 159.609C98.3977 159.183 94.5725 158.642 92.5845 155.908C89.3479 151.456 90.8128 145.528 94.9846 142.428C97.3397 140.678 100.302 139.954 103.198 140.422C110.018 141.555 111.633 146.902 110.566 152.963C119.387 149.969 123.342 150.258 132.179 153.551Z" fill="var(--fill-0, #020101)"/>
<path id="Vector_3" d="M133.524 193.277L133.596 199.271C134.843 199.791 138.058 201.053 138.91 201.906C138.038 202.353 138.037 202.517 137.577 203.452C132.953 200.818 130.234 198.699 124.837 198.07C126.216 198.024 127.483 198.117 128.703 197.541L132.195 198.65C132.55 199.026 132.458 199.043 132.881 199.198C133.281 198.336 133.266 194.942 133.524 193.277Z" fill="var(--fill-0, #242222)"/>
<path id="Vector_4" d="M89.6274 288.057C104.931 285.301 115.352 274.998 124.668 263.2C127.409 259.992 130.488 254.664 134.361 252.831C142.016 249.213 156.622 242.882 165.087 245.378C178.006 249.189 169.899 268.146 167.231 276.733C164.195 286.511 160.286 296.352 157.02 306.157C149.828 306.432 141.578 306.581 134.4 306.189C136.767 298.475 141.397 285.475 142.624 278.093C134.851 283.984 119.418 291.051 110.048 293.224C111.308 294.09 112.766 293.61 114.405 293.793C118.111 293.427 124.685 290.47 128.164 288.786C128.32 288.701 129.216 288.422 129.445 288.347C127.662 297.346 127.357 305.327 124.894 314.798C124.424 313.804 124.361 313.643 123.529 312.931C118.885 328.38 112.729 330.717 97.5003 328.746C90.9622 327.899 84.9935 327.524 78.3289 326.169C79.6362 318.776 81.6527 311.095 83.1474 303.57C89.5565 304.824 95.9803 306.332 102.415 307.501C103.517 307.703 103.656 307.741 104.384 307.229L104.242 306.613C103.247 305.697 101.015 305.289 99.5994 304.92C100.256 301.173 100.672 296.311 102.875 293.382C97.9012 292.249 93.7317 291.247 89.6274 288.057Z" fill="var(--fill-0, #B4A1DD)"/>
<path id="Vector_5" d="M127.581 288.911C127.737 288.826 129.216 288.422 129.445 288.347C127.662 297.346 127.357 305.327 124.894 314.798C124.424 313.804 124.361 313.643 123.529 312.931C124.325 308.514 127.581 292.5 127.581 288.911Z" fill="var(--fill-0, black)"/>
<path id="Vector_6" d="M107.146 293.449C107.941 293.439 109.217 293.291 110.048 293.224C111.308 294.091 112.766 293.61 114.405 293.793C112.207 294.188 109.229 294.197 106.975 294.094L107.146 293.449Z" fill="var(--fill-0, #242222)"/>
<path id="Vector_7" d="M106.975 294.094C105.962 294.096 104.773 294.244 103.952 293.768C104.963 293.28 105.992 293.429 107.146 293.449L106.975 294.094Z" fill="var(--fill-0, black)"/>
<path id="Vector_8" d="M126.85 191.073C128.426 191.04 130.457 191.057 131.972 190.828C132.027 193.437 132.101 196.044 132.195 198.65L128.703 197.54C127.688 197.087 126.611 196.623 125.614 196.146C125.993 194.23 126.257 192.925 126.85 191.073Z" fill="var(--fill-0, #FFFEFD)"/>
<path id="Vector_9" d="M196.502 193.004C197.465 193.09 198.378 193.253 199.007 193.929C198.285 195.14 193.518 196.11 192.203 198.876C193.916 199.292 197.475 196.352 199.7 197.912C199.222 198.732 196.01 199.56 194.589 200.959L194.636 201.48C196.332 201.961 198.561 199.069 201.143 200.53L201.221 200.964C199.779 201.871 196.879 202.573 196.801 204.167C198.04 204.646 200.097 202.639 202.07 202.906L202.385 203.408C202.042 206.48 199.16 204.471 197.188 207.841C195.293 211.145 191.073 211.874 188.809 214.659C183.772 220.857 179.462 227.094 173.803 232.809C166.314 240.008 161.277 237.194 152.665 234.219C154.95 230.463 156.964 225.387 158.915 221.284C161.189 222.359 163.455 223.455 165.71 224.572C170.773 220.356 176.599 215.759 181.392 211.38C188.526 204.862 184.838 196.797 196.502 193.004Z" fill="var(--fill-0, #FFFEFD)"/>
<path id="Vector_10" d="M136.824 308.369C141.142 308.518 145.465 308.541 149.785 308.439C149.191 310.378 147.102 314.612 146.93 315.44C148.564 316.081 150.049 315.093 151.724 315.683C152.524 317.291 151.614 317.159 152.157 318.656C153.133 318.366 154.113 317.247 154.911 316.502C155.755 316.837 156.11 316.963 156.877 317.436C156.806 318.968 155.829 318.181 155.679 319.777C156.404 320.295 155.994 320.166 156.983 320.049C157.674 319.224 158.374 318.495 159.111 317.715C164.821 319.364 167.913 321.253 169.437 327.097C163.524 328.279 158.677 327.894 152.734 328.364C157.396 329.941 160.895 329.859 165.652 329.16C167.131 328.967 167.994 328.196 169.289 329.201C169.483 330.332 169.53 329.868 169.06 330.961C166.325 331.403 150.949 330.976 147.26 330.929C146.569 329.163 145.774 327.941 143.817 327.419L143.407 327.771C143.36 328.888 144.275 329.868 144.968 330.864C140.271 330.856 134.811 330.834 130.173 330.503C129.706 329.754 129.928 329.499 130.043 328.449C131.036 327.678 136.469 328.036 138.352 328.007C135.176 326.714 134.156 326.671 130.758 326.181C132.516 318.254 135.222 315.291 136.824 308.369Z" fill="var(--fill-0, #FFFEFD)"/>
<path id="Vector_11" d="M135.95 165.716C136.836 166.594 137.155 171.402 137.371 173.037C138.496 173.821 139.926 175.073 141.016 175.975C139.97 177.139 139.584 177.374 138.31 178.253C137.983 179.428 137.485 181.996 136.57 182.53C135.585 182.335 134.574 180.972 133.47 180.14C132.587 180.311 132.984 180.119 132.304 180.853L132.412 181.551C133.629 183.058 135.091 183.641 136.88 184.151C133.215 190.357 131.929 188.134 126.389 189.763C124.672 190.267 124.066 193.879 123.639 195.735C123.38 195.825 113.278 195.417 111.667 195.457L113.318 188.505C117.503 187.499 118.722 186.899 121.792 183.75C129.438 181.989 129.826 178.813 129.827 171.705C132.508 170.501 134.289 168.03 135.95 165.716Z" fill="var(--fill-0, #FFFEFD)"/>
<path id="Vector_12" d="M266.416 299.783C276.941 299.11 279.193 307.109 273.962 314.812C272.238 317.348 270.693 318.535 268.315 320.328L267.405 320.715C260.57 320.043 251.862 303.608 266.416 299.783Z" fill="var(--fill-0, #F2F0FA)"/>
<path id="Vector_13" d="M65.4716 298.737L66.1264 298.79C68.544 300.421 66.3209 305.583 65.2657 307.558C61.2233 315.127 53.4163 329.371 44.6721 331.621C43.8112 331.182 43.7303 331.093 43.0056 330.433C41.6891 325.717 60.4571 301.549 65.4716 298.737Z" fill="var(--fill-0, #FFFEFD)"/>
<path id="Vector_14" d="M118.247 152.349C119.101 152.297 120.833 152.121 121.558 152.496C126.617 155.106 123.346 164.066 124.773 167.992C129.869 169.962 128.36 176.521 126.152 180.216C124.507 181.092 123.64 181.623 121.847 182.089C119.782 181.746 118.816 181.306 117.001 180.333C113.766 174.908 114.467 169.982 120.725 167.476C120.481 161.928 120.514 157.518 117.656 152.71L118.247 152.349Z" fill="var(--fill-0, #B4A1DD)"/>
<path id="Vector_15" d="M120.097 170.587C126.199 170.055 127.325 174.529 123.556 178.6C123.15 178.676 122.74 178.734 122.328 178.771C117.59 179.218 117.428 173.669 120.097 170.587Z" fill="var(--fill-0, #020101)"/>
<path id="Vector_16" d="M121.748 171.019C125.635 171.553 124.686 175.843 122.668 178.168C117.943 177.083 118.949 173.692 121.748 171.019Z" fill="var(--fill-0, #B4A1DD)"/>
<path id="Vector_17" d="M74.688 250.04C75.8208 250.377 77.5437 250.695 78.7401 250.948C77.0494 255.821 75.0011 267.529 74.5598 272.824L74.31 273.027L73.7938 272.947C73.4571 272.572 72.5026 271.483 72.297 271.098C69.6425 266.129 73.2765 255.209 74.688 250.04Z" fill="var(--fill-0, #FFFEFD)"/>
<path id="Vector_18" d="M199.869 195.273C202.374 195.339 205.046 195.142 207.273 196.124C207.914 197.019 207.666 196.98 207.453 198.346C205.756 198.098 203.518 197.987 201.77 197.852C200.795 197.132 200.263 196.833 199.56 195.832L199.869 195.273Z" fill="var(--fill-0, #B4A1DD)"/>
<path id="Vector_19" d="M186.139 193.083C187.364 193.215 190.402 193.327 191.155 194.098L190.901 194.764C189.506 195.454 187.901 195.972 186.467 195.111C185.836 194.129 186.017 194.498 186.139 193.083Z" fill="var(--fill-0, #B4A1DD)"/>
<path id="Vector_20" d="M432.728 112.949C433.682 111.459 432.757 105.04 433.537 103.76C435.167 106.082 433.108 144.714 434.471 150.495C434.907 180.173 434.074 210.175 434.197 239.831L434.055 240.195C433.42 241.839 433.416 242.112 433.281 243.83L433.252 244.167C433.211 243.172 433.186 241.746 432.681 240.881C432.403 238.707 432.599 230.893 432.608 228.235L432.661 202.312C432.64 172.679 432.352 142.532 432.728 112.949Z" fill="var(--fill-0, #020101)"/>
<path id="Vector_21" d="M320.523 280.161C328.019 280.746 334.89 281.914 342.279 282.796C358.833 284.777 375.359 286.91 391.906 288.937C394.588 289.266 402.674 291.028 404.674 289.648L405.552 288.941L414.506 280.506L415.397 281.854C412.342 284.685 406.212 291.737 401.968 291.578C394.424 291.297 386.635 290.242 379.156 289.197L357.842 286.423C345.952 284.805 332.242 283.664 320.608 281.709C319.55 280.916 318.334 280.775 317.051 280.518C318.208 280.392 319.367 280.272 320.523 280.161Z" fill="var(--fill-0, #060505)"/>
<path id="Vector_22" d="M412.027 88.7045C415.214 88.6936 431.67 90.04 433.471 91.5719C434.415 93.865 434.497 98.2985 434.427 100.811C433.995 117.056 435.27 134.348 434.471 150.495C433.108 144.714 435.167 106.082 433.537 103.76C432.757 105.04 433.682 111.459 432.728 112.949C432.453 109.112 433.758 95.3264 432.289 92.8956C429.778 92.6539 426.622 97.0748 423.796 97.0691L423.726 96.6829C425.254 95.1537 429.955 92.8836 432.014 91.8373C425.464 91.0582 417.01 91.2307 411.064 90.329C414.209 89.9901 415.931 90.129 419.055 90.1313C418.758 89.8738 413.211 89.0609 412.027 88.7045Z" fill="var(--fill-0, #242222)"/>
<path id="Vector_23" d="M283.808 275.418C294.124 276.594 304.474 278.032 314.803 279.156C316.597 279.352 318.738 279.808 320.523 280.161C319.367 280.272 318.208 280.392 317.051 280.518C318.334 280.775 319.55 280.916 320.608 281.709C308.808 280.274 296.41 278.992 284.664 277.388C285.276 277.218 285.809 276.986 286.401 276.751C285.094 276.501 284.743 276.456 283.808 275.418Z" fill="var(--fill-0, #484647)"/>
<path id="Vector_24" d="M432.681 240.881C433.186 241.746 433.211 243.172 433.252 244.167L433.281 243.829C433.416 242.112 433.42 241.839 434.055 240.195L434.197 239.831C434.146 246.974 434.5 257.667 434.163 264.373C430.106 268.496 425.741 272.096 421.683 276.071L420.476 275.081C424.171 271.861 428.265 267.887 431.705 264.431L432.346 263.661C433.024 261.786 432.642 244.182 432.681 240.881Z" fill="var(--fill-0, #242222)"/>
<path id="Vector_25" d="M202.079 206.833C204.19 208.48 208.081 208.334 208.541 209.022C206.662 211.318 201.99 210.743 200.855 207.168L202.079 206.833Z" fill="var(--fill-0, #FB8CBD)"/>
<path id="Vector_26" d="M414.506 280.506L420.476 275.081L421.683 276.071C419.592 278.107 417.58 279.918 415.397 281.854L414.506 280.506Z" fill="var(--fill-0, #242222)"/>
<path id="Vector_27" d="M409.999 104.643C411.54 103.654 420.135 98.3588 421.306 98.5669L421.288 98.8751C417.327 100.736 414.023 103.251 410.21 105.172L409.999 104.643Z" fill="var(--fill-0, #AEACAD)"/>
<path id="Vector_28" d="M201.233 193.634C201.312 192.103 201.24 191.047 202.012 189.728L202.553 189.383C203.729 190.511 203.356 192.195 203.293 193.762L201.233 193.634Z" fill="var(--fill-0, #FB8CBD)"/>
<path id="Vector_29" d="M404.674 289.648C404.456 287.629 404.174 280.328 405.091 278.812C405.119 281.014 404.99 287.222 405.552 288.941L404.674 289.648Z" fill="var(--fill-0, #AEACAD)"/>
<path id="Vector_30" d="M431.705 264.431C430.488 263.845 426.613 264.263 425.277 263.294C426.045 262.911 431.123 263.555 432.346 263.661L431.705 264.431Z" fill="var(--fill-0, #AEACAD)"/>
<path id="Vector_31" d="M283.451 101.931C283.925 102.914 284.082 124.945 284.133 128.143C288.713 128.576 293.482 128.801 298.109 129.191C302.945 129.598 308.523 130.372 313.268 130.388C313.29 127.9 313.343 106.926 313.801 106.495C314.454 112.365 314.259 124.151 314.322 130.529C322.431 131.076 330.491 131.618 338.578 132.45C340.639 132.662 342.279 132.608 344.341 132.587C345.071 132.641 345.934 133.241 346.634 133.265C355.833 133.57 365.011 134.675 374.193 135.2C374.193 132.582 374.048 117.13 374.459 115.097C375.236 118.779 375.069 131.02 375.031 135.331C382.999 135.705 394.974 136.999 403.268 137.783C405.691 138.01 403.869 131.953 404.547 130.736L405.078 130.81C405.476 132.184 405.309 135.559 405.289 137.138C407.292 135.807 408.255 135.416 410.431 134.485C409.683 135.099 405.962 138.157 405.178 138.146C395.226 137.993 384.911 136.893 375.027 136.106C375.031 137.546 375.144 139.842 374.746 141.136C373.818 140.726 374.749 137.98 373.884 136.233C372.693 135.893 371.628 135.803 370.4 135.715C361.84 135.098 353.258 134.117 344.696 133.604C344.636 138.76 345.14 154.409 344.408 158.556C344.123 157.087 344.165 152.442 344.142 150.751L344.019 133.627C335.134 132.543 323.729 132.233 314.266 131.322C314.266 135.515 314.36 140.135 314.152 144.291C313.194 141.848 313.458 134.25 313.39 131.258C303.618 130.679 293.851 129.951 284.098 129.074C283.917 137.997 284 146.525 283.545 155.531C283.381 154.883 283.381 148.736 283.366 147.639C283.217 141.396 283.109 135.153 283.044 128.909C274.035 128.378 262.749 127.624 253.893 126.698C253.94 128.858 253.991 130.527 253.789 132.694L253.299 132.958L253.318 133.128L253.719 133.163L253.587 133.71L253.33 133.6L253.59 133.427L253.227 133.16L253.631 133.111L253.646 132.945L253.151 132.686C252.863 130.98 252.929 128.227 252.917 126.422C243.138 125.913 233.58 125.013 223.76 124.65L223.346 136.239L223.142 136.529L223.231 137.015L223.296 136.526C222.874 136.03 222.769 125.729 222.731 124.255C213.357 123.355 204.277 122.876 194.865 122.347C194.24 122.226 193.99 122.283 193.372 122.345C192.684 123.529 193.258 145.815 193.3 148.917C200.669 150.573 211.411 150.529 219.771 151.855C219.151 152.387 196.02 150.418 193.323 150.316C193.446 159.494 193.509 168.672 193.511 177.85C194.707 177.951 196.015 178.132 197.218 178.276L197.172 178.405C193.102 178.807 189.556 178.122 185.525 177.812C178.298 177.258 170.351 176.011 163.154 175.873C162.793 183.635 163.4 196.42 163.517 204.567C166.421 205.059 175.796 205.709 177.516 206.262C176.446 206.769 165.48 205.671 163.586 205.53C163.496 206.725 163.503 207.447 163.118 208.594C162.639 208.012 162.64 206.266 162.571 205.403C159.314 205.124 156.009 204.678 152.762 204.274L152.572 204.025C153.858 203.565 160.662 204.246 162.59 204.381C162.999 194.279 162.735 185.683 162.723 175.71C159.709 175.597 153.963 175.07 151.134 174.3C152.622 173.998 160.882 174.739 162.57 174.976C162.663 165.874 162.611 156.768 162.416 147.668C159.8 147.499 150.796 146.975 148.918 146.069C149.752 145.69 160.403 146.402 162.376 146.389C162.417 137.525 162.389 128.66 162.296 119.795C156.611 118.542 143.491 118.148 136.511 117.211L136.782 117.086C138.206 117.35 139.218 117.271 140.63 117.326C147.855 117.609 155.064 118.194 162.29 118.522C162.372 115.917 162.477 114.55 162.869 111.958C163.106 112.99 163.04 117.164 163.045 118.455C172.67 119.461 182.312 120.293 191.967 120.95C191.995 119.578 192.046 109.989 192.399 109.619C193.169 111.635 193.074 118.268 193.132 120.897C202.934 121.916 212.76 122.702 222.601 123.25C222.587 121.025 222.564 115.098 223.099 113.23L223.324 113.137C223.507 116.569 223.622 120.006 223.669 123.443C233.366 124.014 243.325 125.284 252.91 125.682C252.898 123.621 252.624 116.621 253.296 115.179C254.073 116.464 253.884 123.907 253.886 125.889C262.784 126.338 274.019 127.105 282.927 128.132C282.945 120.157 282.731 109.783 283.451 101.931Z" fill="var(--fill-0, #CBC9C9)"/>
<path id="Vector_32" d="M163.387 147.791C172.411 148.171 183.307 149.232 192.287 150.315L192.724 177.675C182.94 176.72 173.146 175.85 163.346 175.066C163.166 165.974 163.18 156.881 163.387 147.791Z" fill="var(--fill-0, #FFFEFD)"/>
<path id="Vector_33" d="M163.165 119.806C172.159 120.802 182.552 121.037 192.02 121.964C192.302 130.652 192.358 140.298 192.349 149.007C183.302 148.276 172.225 148.002 163.477 146.653C163.244 137.706 163.141 128.756 163.165 119.806Z" fill="var(--fill-0, #FFFEFD)"/>
<path id="Vector_34" d="M350.353 190.222C350.16 176.157 350.384 162.012 350.416 147.951C350.418 145.835 349.619 143.249 349.932 141.157C351.069 139.783 352.289 140.151 353.505 141.232C353.736 142.351 353.022 143.977 352.671 145.293C353.062 146.057 353.306 145.725 354.563 145.62C364.13 144.822 367.838 152.055 376.114 155.192C379.911 156.631 384.97 156.04 385.997 156.738L386.054 157.384C384.683 159.833 381.158 162.254 378.89 163.959C369.088 171.333 362.266 161.006 352.567 167.763C352.477 175.307 352.491 182.853 352.602 190.396C360.517 191.046 368.452 191.882 376.36 192.661C383.075 193.32 392.166 193.763 398.688 195.236C395.877 196.687 380.78 201.734 377.09 202.802C375.605 203.232 363.896 201.689 361.243 201.416L319.802 197.015C319.755 200.937 319.901 205.214 319.958 209.162C319.917 212.808 319.755 220.281 320.059 223.753C316.882 224.73 263.735 216.935 256.139 216.54C256.136 220.361 256.575 242.485 255.934 244.701L255.74 244.872L254.707 245.131C251.992 244.861 248.861 244.08 246.11 243.83C238.801 243.169 231.908 242.386 224.65 241.273L223.833 241.063C219.971 241.348 202 238.571 196.521 238.01C195.686 237.895 194.433 237.863 193.559 237.813L193.401 236.201L195.201 236.184C199.699 236.699 204.15 237.331 208.656 237.846C213.528 238.403 218.794 238.708 223.564 239.608L224.554 239.849C234.911 240.579 244.067 242.07 254.224 243.173L254.228 226.172C254.224 223.494 254.067 217.862 254.591 215.503C256.019 214.411 258.57 215.087 260.466 215.335C261.48 213.511 266.975 202.791 268.164 202.312C271.051 204.868 274.527 216.574 277.222 217.044C279.465 215.404 283.394 206.708 285.773 203.432C287.901 207.044 292.408 217.553 294.967 219.127C297.283 219.036 300.921 207.532 303.438 206.215C305.106 207.338 309.673 218.173 311.692 221.288C313.842 221.577 316.164 222.028 318.318 222.403C318.391 214.13 318.182 203.877 319.19 195.868C325.523 193.699 332.586 191.453 339.067 189.771C341.351 189.178 347.532 190.083 350.353 190.222Z" fill="var(--fill-0, #020101)"/>
<path id="Vector_35" d="M340.072 190.883C343.29 191.031 346.985 191.519 350.23 191.875C350.232 193.045 350.239 193.543 350.422 194.726C351.174 195.525 350.76 195.327 351.969 195.383L352.415 194.968C352.488 193.879 352.412 193.517 352.975 192.636C354.48 191.91 389.326 195.399 393.502 195.894C389.045 197.627 385.015 199.082 380.431 200.43C373.451 202.495 333.366 196.198 323.12 195.951C327.633 194.981 335.479 192.317 340.072 190.883Z" fill="var(--fill-0, #FFFEFD)"/>
<path id="Vector_36" d="M355.283 146.935C366.165 145.829 366.799 157.513 383.249 158.013C380.795 160.558 379.238 161.646 376.266 163.389C365.239 168.909 363.46 159.69 352.673 165.792C352.626 162.587 352.248 150.427 352.709 147.792C353.4 147.138 354.298 147.116 355.283 146.935Z" fill="var(--fill-0, #FB8CBD)"/>
<path id="Vector_37" d="M285.576 206.769C286.442 207.503 290.937 216.995 291.757 218.68L287.092 218.338L279.515 217.527C281.445 214.529 283.791 209.979 285.576 206.769Z" fill="var(--fill-0, #FFFEFD)"/>
<path id="Vector_38" d="M303.305 208.971C304.108 209.772 308.416 219.014 309.311 220.88C307.452 220.793 305.328 220.537 303.454 220.357L297.333 219.653C299.199 216.666 301.499 212.176 303.305 208.971Z" fill="var(--fill-0, #FFFEFD)"/>
<path id="Vector_39" d="M267.939 204.903C268.808 205.698 273.053 214.856 273.928 216.612C272.282 216.41 270.44 216.278 268.773 216.12C266.502 215.947 264.484 215.665 262.235 215.352C263.956 212.657 266.35 207.852 267.939 204.903Z" fill="var(--fill-0, #FFFEFD)"/>
<path id="Vector_40" d="M376.357 228.738C376.372 223.785 376.105 208.65 376.746 204.44C377.194 211.792 377.264 221.677 377.191 229.053C383.527 229.879 390.043 230.494 396.281 231.335C395.41 231.981 379.497 230.228 377.209 229.921C377.209 232.951 377.033 257.846 377.315 258.307C379.491 259.1 391.534 259.648 392.195 260.855C388.095 261.167 380.902 258.583 376.866 260.164C376.644 259.79 376.43 259.413 376.222 259.032C367.399 257.922 355.666 256.518 346.957 255.817C346.944 258.469 347.021 262.08 346.742 264.639C346.449 261.167 345.994 259.152 346.069 255.6C337.116 254.803 328.205 253.104 319.234 252.468C317.848 252.37 317.332 252.108 316.571 253.41L316.177 252.224C312.702 250.653 305.245 251.113 302.03 250.227C297.93 249.096 281.714 248.6 279.686 247.3C281.05 246.911 283.726 247.433 285.173 247.687C285.137 245.664 284.813 232.758 285.28 231.615C286.133 234.821 285.832 244.089 285.687 247.783C295.472 248.345 306.18 250.384 316.193 251.131C316.123 248.404 315.939 227.58 316.41 226.508C316.976 231.46 317.04 245.855 316.938 251.314C326.455 252.519 336.559 253.915 346.13 254.678C346.051 245.296 346.037 235.914 346.085 226.532C338.504 225.609 327.512 224.195 320.059 223.753C319.755 220.281 319.917 212.808 319.958 209.162C320.539 210.145 320.302 221.173 320.289 223.257C328.631 223.577 337.734 225.065 346.116 225.725C346.098 222.597 345.952 217.142 346.401 214.235L346.461 214.206C347.096 215.714 346.953 223.758 346.888 225.745C356.741 226.675 366.464 228.38 376.357 228.738Z" fill="var(--fill-0, #CBC9C9)"/>
<path id="Vector_41" d="M346.989 226.964C356.527 227.391 366.822 229.001 376.348 229.814C376.442 238.789 376.91 249.505 376.556 258.324C367.51 257.716 356.382 255.854 346.91 254.97C347.241 246.554 346.904 235.655 346.989 226.964Z" fill="var(--fill-0, #FFFEFD)"/>
<path id="Vector_42" d="M225.784 140.908C228.58 140.993 251.416 142.591 252.284 143.578C252.996 144.387 253.189 146.371 253.283 147.418C253.608 151.034 253.347 154.814 253.388 158.449C253.426 161.92 253.861 165.877 253.422 169.282C253.309 170.153 252.348 170.653 251.704 171.161C248.77 171.281 226.829 170.091 225.043 168.536C223.682 167.353 224.265 147.024 224.265 143.923C224.266 142.593 224.667 141.741 225.784 140.908Z" fill="var(--fill-0, #020101)"/>
<path id="Vector_43" d="M226.033 142.947C234.299 143.074 243.299 144.158 251.521 145.047C251.698 153.106 251.666 161.168 251.426 169.224C250.134 169.588 229.088 167.888 226.175 167.661C225.71 161.576 226.041 149.33 226.033 142.947Z" fill="var(--fill-0, #B4A1DD)"/>
<path id="Vector_44" d="M242.55 151.823C246.245 152.291 245.554 154.655 245.457 157.662C245.422 158.638 245.261 159.578 244.98 160.519L243.217 160.445C241.202 159.118 241.641 153.666 242.55 151.823Z" fill="var(--fill-0, #020101)"/>
<path id="Vector_45" d="M232.137 150.877C232.592 150.877 233.617 150.858 233.966 151.048C235.953 152.141 235.214 158.363 234.453 159.817C233.842 159.76 232.692 159.633 232.399 159.059C231.32 156.947 231.814 153.109 232.137 150.877Z" fill="var(--fill-0, #020101)"/>
<path id="Vector_46" d="M262.992 155.48C264.075 155.343 265.03 155.398 266.11 155.472C288.723 157.023 311.282 159.512 333.891 161.191C336.537 161.387 339.62 161.532 342.203 162.036C339.796 162.536 331.385 161.507 328.315 161.324C313.511 160.445 298.82 158.799 284.019 157.884C284 167.264 284.326 176.535 284.335 185.778C292.172 186.3 300.027 187.221 307.864 187.905C309.704 188.065 312.399 188.108 314.357 187.871C314.562 188.109 314.771 188.348 314.976 188.587C317.134 188.662 320.624 188.926 322.633 189.075C323.902 189.149 324.414 189.14 325.658 189.552C324.086 189.959 316.906 189.586 314.345 189.75L313.997 189.066C312.703 188.257 289.828 187.193 286.66 186.847C286.208 186.798 284.687 187.234 284.057 187.235L283.786 186.614C282.93 185.803 257.914 184.39 254.591 184.111C254.6 185.336 254.698 186.274 254.297 187.427C253.884 186.636 254.012 184.91 254.012 183.926C250.235 183.343 245.264 183.643 241.697 182.466C245.371 182.408 250.194 182.731 253.837 183.212C253.805 179.938 253.758 177.218 254.051 173.967L254.228 174.134C254.604 177.3 254.55 179.874 254.53 183.069C260.778 183.569 267.013 184.282 273.248 184.902C276.764 185.251 280.153 185.356 283.697 185.809C283.712 176.334 283.426 167.149 283.381 157.809C280.168 157.611 265.615 156.242 262.992 155.48Z" fill="var(--fill-0, #CBC9C9)"/>
<path id="Vector_47" d="M223.739 180.376C232.759 179.51 231.96 182.57 231.212 190.054L230.165 190.037C228.981 188.682 229.43 184.648 229.388 182.553C227.112 182.203 224.617 182.739 223.739 180.376Z" fill="var(--fill-0, #FB8CBD)"/>
<path id="Vector_48" d="M229.829 205.338L230.792 205.616C231.929 206.843 231.471 211.088 231.404 212.875C228.709 212.927 227.414 212.79 224.761 212.466C224.128 212.459 223.92 212.283 223.366 211.984L223.162 211.871L223.763 212.306L223.416 211.34C224.554 210.213 227.876 210.782 229.404 210.95C229.4 208.967 229.331 207.268 229.829 205.338Z" fill="var(--fill-0, #FB8CBD)"/>
<path id="Vector_49" d="M254.707 245.131L255.74 244.872C254.891 250.769 255.873 262.434 255.113 269.682C254.906 268.631 254.929 267.561 254.9 266.494C254.715 259.375 254.853 252.252 254.707 245.131Z" fill="var(--fill-0, #CBC9C9)"/>
<path id="Vector_50" d="M404.472 191.76L405.061 192.185C405.59 193.292 405.425 194.537 405.406 195.809C406.162 195.309 407.883 193.988 408.694 194.331C407.848 195.445 406.508 195.97 405.242 196.618C405.261 198.809 405.908 203.644 404.662 205.079C404.379 202.451 404.487 199.124 404.506 196.423C402.38 196.334 401.083 196.19 398.975 195.862C400.782 195.848 402.492 195.839 404.298 195.724C404.598 194.986 404.481 192.701 404.472 191.76Z" fill="var(--fill-0, #CBC9C9)"/>
<path id="Vector_51" d="M223.832 241.063L224.65 241.273C223.986 247.793 224.866 258.289 224.304 265.774C223.554 263.146 223.805 244.692 223.832 241.063Z" fill="var(--fill-0, #CBC9C9)"/>
<path id="Vector_52" d="M230.132 193.387C232.102 194.448 231.735 199.738 231.002 201.471L229.963 201.054C228.951 199.425 229.286 195.044 230.132 193.387Z" fill="var(--fill-0, #FB8CBD)"/>
<path id="Vector_53" d="M201.831 178.469C203.272 177.736 208.586 177.746 209.466 179.333C207.807 181.351 205.06 179.229 203.437 180.327C203.045 179.236 202.795 179.096 201.831 178.469Z" fill="var(--fill-0, #FB8CBD)"/>
<path id="Vector_54" d="M201.831 178.469C202.795 179.096 203.045 179.236 203.437 180.327C203.477 182.072 203.746 183.733 202.842 185.172L202.282 185.234C200.789 183.417 201.319 180.573 201.831 178.469Z" fill="var(--fill-0, #FB8CBD)"/>
<path id="Vector_55" d="M404.958 223.537C405.264 225.822 405.271 228.753 405.343 231.1C406.597 230.215 407.437 229.544 408.868 228.97C408.596 229.676 407.946 230.125 407.359 230.633C405.921 231.963 405.46 232.664 404.472 234.328C404.449 231.656 404.241 225.965 404.958 223.537Z" fill="var(--fill-0, #CBC9C9)"/>
<path id="Vector_56" d="M212.904 209.092C214.54 209.335 218.455 209.76 219.604 210.576L219.661 211.4C217.902 211.348 213.262 211.631 212.51 210.058L212.904 209.092Z" fill="var(--fill-0, #FB8CBD)"/>
<path id="Vector_57" d="M213.408 178.795C215.155 178.926 218.973 178.941 220.058 180.188L219.972 180.972C218.211 180.875 214.196 181.151 213.169 179.717L213.408 178.795Z" fill="var(--fill-0, #FB8CBD)"/>
<path id="Vector_58" d="M404.664 160.236C405.804 161.49 405.429 164.701 405.406 166.585C406.666 165.791 407.188 165.591 408.555 165.041L408.938 165.228L408.429 165.739L404.51 168.126C404.481 165.661 404.346 162.638 404.664 160.236Z" fill="var(--fill-0, #AEACAD)"/>
<path id="Vector_59" d="M193.559 237.813C194.433 237.863 195.686 237.896 196.521 238.01C195.688 238.109 195.382 238.182 194.57 238.404C194.178 241.763 194.323 247.006 194.119 250.732C193.823 250.326 193.571 239.175 193.559 237.813Z" fill="var(--fill-0, #CBC9C9)"/>
<path id="Vector_60" d="M404.563 256.272L405.129 256.738C405.489 257.921 405.336 259.934 405.312 261.243C406.458 260.105 407.523 259.078 408.95 258.312L409.197 258.544L408.763 259.161C407.567 260.065 405.839 261.99 404.709 262.472C404.187 261.665 404.522 257.524 404.563 256.272Z" fill="var(--fill-0, #AEACAD)"/>
<path id="Vector_61" d="M223.564 239.608C224.26 237.279 223.579 231.61 223.679 228.925L224.055 228.729L224.232 228.082C224.648 230.481 224.536 237.115 224.554 239.849L223.564 239.608Z" fill="var(--fill-0, #CBC9C9)"/>
<path id="Vector_62" d="M416.148 261.929C417.959 261.83 420.53 262.004 422.213 262.672L422.482 263.323C420.615 263.282 417.179 263.494 416.148 261.929Z" fill="var(--fill-0, #CBC9C9)"/>
<path id="Vector_63" d="M193.401 236.201L193.453 235.869C193.597 234.899 193.802 229.049 193.945 228.931C194.147 230.503 194.229 235.613 195.201 236.184L193.401 236.201Z" fill="var(--fill-0, #CBC9C9)"/>
<path id="Vector_64" d="M240.251 213.286C242.285 212.989 248.571 213.693 250.608 214.43C247.936 214.585 242.863 214.044 240.251 213.286Z" fill="var(--fill-0, #CBC9C9)"/>
<path id="Vector_65" d="M374.667 178.346L374.778 178.864C375.488 182.101 375.312 184.809 375.296 188.124C374.184 186.636 374.617 180.385 374.667 178.346Z" fill="var(--fill-0, #CBC9C9)"/>
<path id="Vector_66" d="M404.648 267.416L404.952 267.658C405.545 268.807 405.236 273.439 405.15 274.95C403.986 274.033 404.557 269.007 404.648 267.416Z" fill="var(--fill-0, #AEACAD)"/>
<path id="Vector_67" d="M404.929 110.409C405.485 111.702 405.233 116.767 404.996 118.283C404.153 117.059 404.377 111.848 404.929 110.409Z" fill="var(--fill-0, #AEACAD)"/>
<path id="Vector_68" d="M404.63 237.39L405.008 237.709C405.501 239.42 405.265 242.473 405.113 244.272C404.042 243.033 404.547 239.266 404.63 237.39Z" fill="var(--fill-0, #AEACAD)"/>
<path id="Vector_69" d="M390.968 166.568C392.857 166.284 397.4 166.238 399.013 167.22C396.708 167.243 392.997 167.37 390.968 166.568Z" fill="var(--fill-0, #CBC9C9)"/>
<path id="Vector_70" d="M420.738 248.861L421.121 249.123C420.779 249.99 417.721 252.085 416.831 252.746C416.502 252.467 416.645 252.641 416.556 252.083C417.402 251.091 419.584 249.674 420.738 248.861Z" fill="var(--fill-0, #CBC9C9)"/>
<path id="Vector_71" d="M404.563 171.932L405.14 172.486C405.479 174.379 405.283 176.376 405.182 178.306L404.668 177.857C404.346 176.238 404.515 173.653 404.563 171.932Z" fill="var(--fill-0, #AEACAD)"/>
<path id="Vector_72" d="M404.575 182.032L405.129 182.496C405.514 184.176 405.331 186.095 405.255 187.837C405.071 187.845 404.823 187.755 404.627 187.701C404.342 186.191 404.522 183.645 404.575 182.032Z" fill="var(--fill-0, #AEACAD)"/>
<path id="Vector_73" d="M420.845 219.211L420.826 219.822C419.566 221.159 417.911 222.378 416.455 223.525L416.43 222.986C417.229 221.645 419.5 220.062 420.845 219.211Z" fill="var(--fill-0, #CBC9C9)"/>
<path id="Vector_74" d="M404.63 142.302L405.113 142.783C405.435 144.574 405.236 146.736 405.148 148.581L404.627 148.063C404.351 146.17 404.528 144.216 404.63 142.302Z" fill="var(--fill-0, #AEACAD)"/>
<path id="Vector_75" d="M404.639 121.451L405.116 121.933C405.438 123.797 405.289 125.48 405.208 127.359C404.867 127.387 405.012 127.368 404.61 127.085C404.367 125.281 404.547 123.283 404.639 121.451Z" fill="var(--fill-0, #AEACAD)"/>
<path id="Vector_76" d="M420.612 157.852L421.06 157.944C420.678 158.91 417.996 160.207 417.03 160.677L416.811 160.632L416.655 160.246C417.561 159.312 419.389 158.486 420.612 157.852Z" fill="var(--fill-0, #CBC9C9)"/>
<path id="Vector_77" d="M428.401 243.198L428.423 243.82C427.469 244.896 425.476 246.137 424.231 246.988L424.226 246.39C425.056 245.282 427.176 244.018 428.401 243.198Z" fill="var(--fill-0, #CBC9C9)"/>
<path id="Vector_78" d="M420.934 186.657L421.354 186.767C420.943 187.526 417.964 189.209 417.021 189.814C416.705 189.734 416.853 189.782 416.591 189.381C417.096 188.649 419.98 187.19 420.934 186.657Z" fill="var(--fill-0, #CBC9C9)"/>
<path id="Vector_79" d="M420.666 128.12L421.076 128.227L421.016 128.646C419.677 129.783 418.574 130.255 417.001 131.043L416.657 130.821C417.408 129.911 419.548 128.783 420.666 128.12Z" fill="var(--fill-0, #CBC9C9)"/>
<path id="Vector_80" d="M404.954 215.296C405.53 216.999 405.248 219.498 404.984 221.249C404.256 219.862 404.31 216.738 404.954 215.296Z" fill="var(--fill-0, #AEACAD)"/>
<path id="Vector_81" d="M404.853 247.805C405.561 249.274 405.233 252.023 404.99 253.618C404.153 252.314 404.428 249.251 404.853 247.805Z" fill="var(--fill-0, #AEACAD)"/>
<path id="Vector_82" d="M428.003 153.331C428.603 153.421 428.373 153.28 428.723 153.751C427.801 154.668 426.054 155.424 424.838 156.03L424.323 155.983C424.525 155.401 427.26 153.818 428.003 153.331Z" fill="var(--fill-0, #CBC9C9)"/>
<path id="Vector_83" d="M404.623 152.084L405.125 152.578C405.438 154.294 405.255 155.681 405.125 157.404L404.63 156.911C404.358 155.468 404.542 153.587 404.623 152.084Z" fill="var(--fill-0, #AEACAD)"/>
<path id="Vector_84" d="M428.047 124.089C428.407 124.122 428.308 124.128 428.653 124.321C427.822 125.198 425.808 126.013 424.627 126.571L424.282 126.244C424.945 125.44 426.999 124.594 428.047 124.089Z" fill="var(--fill-0, #CBC9C9)"/>
<path id="Vector_85" d="M427.851 213.827L428.063 214.026C427.687 214.907 425.38 216.395 424.463 217.064C424.156 216.786 424.278 216.961 424.22 216.456C425.303 215.336 426.531 214.654 427.851 213.827Z" fill="var(--fill-0, #CBC9C9)"/>
<path id="Vector_86" d="M428.259 182.513L428.631 182.602L428.553 182.945L424.904 184.966L424.737 184.963L424.538 184.682C425.369 183.817 427.122 183.074 428.259 182.513Z" fill="var(--fill-0, #CBC9C9)"/>
<path id="Vector_87" d="M404.601 207.994L405.055 208.405C405.381 209.608 405.167 211.071 405.069 212.337L404.668 211.973C404.349 210.766 404.534 209.278 404.601 207.994Z" fill="var(--fill-0, #AEACAD)"/>
<path id="Vector_88" d="M441.872 305.568C449.462 304.645 453.243 307.451 453.976 315.374C454.869 325.047 457.305 334.793 457.03 344.495C456.96 346.873 454.304 349.679 452.093 350.457C446.683 351.996 440.752 352.538 435.161 353.275L418.726 355.575C418.097 355.663 417.469 355.735 416.841 355.792C411.142 356.269 407.633 354.559 406.581 348.595C404.942 339.289 403.972 330.196 402.776 320.788C402.231 316.546 403.593 311.899 408.318 310.489C418.6 308.338 431.496 306.357 441.872 305.568Z" fill="var(--fill-0, #020101)"/>
<path id="Vector_89" d="M441.388 307.779C447.311 307.261 450.663 307.403 451.74 314.35C452.956 322.204 453.931 330.156 454.772 338.059C455.877 348.451 452.59 348.788 443.373 350.011C434.995 351.064 426.616 352.519 418.173 353.328C418.063 353.347 417.953 353.375 417.838 353.39C415.618 353.701 412.345 353.903 410.537 352.37C407.94 350.179 405.463 326.554 404.99 322.558C404.671 319.831 404.182 316.647 406.032 314.375C406.992 313.194 408.154 312.445 409.6 311.989C413.808 310.673 418.773 310.698 423.164 310.161C429.257 309.415 435.274 308.36 441.388 307.779Z" fill="var(--fill-0, #FFFEFD)"/>
<path id="Vector_90" d="M420.046 320.867C422.955 320.56 439.572 326.26 440.501 329.087C439.92 330.834 435.191 333.975 433.442 335.27C431.006 337.118 425.666 341.905 422.725 341.424C421.171 339.438 419.118 323.471 420.046 320.867Z" fill="var(--fill-0, #020101)"/>
<path id="Vector_91" d="M421.241 322.014C423.704 322.536 436.143 327.654 439.231 328.87C437.671 330.253 434.547 332.42 432.772 333.726C429.762 335.996 426.711 338.215 423.625 340.378C423.063 335.232 421.269 326.878 421.241 322.014Z" fill="var(--fill-0, #FB8CBD)"/>
<path id="Vector_92" d="M414.499 15.767C418.58 15.5705 455.223 19.708 459.032 21.0267C459.788 21.7681 460.682 22.6231 461.124 23.6027C461.838 25.1865 457.314 59.1851 456.534 61.4079C456.057 62.7721 454.883 63.2223 453.688 63.8421C451.651 64.3415 447.883 63.9701 445.868 63.5507C439.554 62.2384 411.575 60.6333 407.746 57.0842C406.518 53.2502 410.631 25.103 411.49 19.3945C411.758 17.6151 413.079 16.6636 414.499 15.767Z" fill="var(--fill-0, #020101)"/>
<path id="Vector_93" d="M415.698 17.986C420.003 18.1007 457.472 22.4464 458.553 23.808C459.403 28.5043 455.618 53.2644 454.57 59.2262C454.314 60.6718 453.831 61.1388 452.637 61.8722C444.882 61.8306 435.024 59.5661 427.09 58.8221C423.414 58.4778 412.049 57.7278 409.94 55.3075C408.732 51.0521 411.164 40.9606 411.613 36.1846C412.102 30.9485 412.371 25.1557 413.685 20.091C414.026 18.7821 414.595 18.5104 415.698 17.986Z" fill="var(--fill-0, #B4A1DD)"/>
<path id="Vector_94" d="M437.15 29.8163C438.319 30.0361 438.208 29.8248 438.904 30.5164C438.691 31.9074 432.377 47.3912 431.402 50.2164C430.593 50.045 430.479 49.9887 429.728 49.6323C429.278 48.0805 436.098 32.1892 437.15 29.8163Z" fill="var(--fill-0, #020101)"/>
<path id="Vector_95" d="M427.308 31.1286C428.113 31.3378 428.079 31.3886 428.593 32.0104C428.331 33.6563 424.422 36.8745 422.885 38.3919C424.133 40.815 427.655 44.0826 426.37 46.457C424.156 46.1316 421.168 40.1848 420.024 38.2678C421.985 35.8346 424.958 33.2851 427.308 31.1286Z" fill="var(--fill-0, #020101)"/>
<path id="Vector_96" d="M441.874 33.5718L442.892 33.6585C444.861 34.7667 447.151 39.6972 448.622 41.8922C446.291 44.3068 444.162 46.2522 441.66 48.5022C440.77 48.6519 440.556 48.5195 440.031 47.9292C440.088 46.4405 444.393 42.8887 445.824 41.5178C444.386 39.2369 441.667 35.9339 441.874 33.5718Z" fill="var(--fill-0, #020101)"/>
<path id="Vector_97" d="M58.2811 57.9056C54.0743 58.0063 47.873 57.8266 47.3891 51.9956C47.011 47.4404 46.3193 30.1241 49.282 27.4427C55.0985 22.1782 74.8836 23.881 82.9407 22.7829C89.8397 22.509 96.5983 22.1206 103.509 22.2231C115.508 22.3925 111.746 33.4085 112.291 41.2175C113.346 56.3705 107.064 55.3029 94.7339 55.8593C89.3801 56.0849 84.0311 56.4125 78.6893 56.8425C76.1963 57.2955 71.8551 57.2437 69.2282 57.22C67.8693 58.4458 67.5117 58.852 66.4066 60.3151C65.2521 61.6434 61.4918 67.9982 59.7707 63.7547C59.1421 62.2052 58.6712 59.6175 58.2811 57.9056Z" fill="var(--fill-0, #FFFEFD)"/>
<path id="Vector_98" d="M58.2811 57.9056C54.0743 58.0063 47.873 57.8266 47.3891 51.9956C47.011 47.4404 46.3193 30.1241 49.282 27.4427C55.0985 22.1782 74.8836 23.881 82.9407 22.7829C89.8397 22.509 96.5983 22.1206 103.509 22.2231C115.508 22.3925 111.746 33.4085 112.291 41.2175C113.346 56.3705 107.064 55.3029 94.7339 55.8593C89.3801 56.0849 84.0311 56.4125 78.6893 56.8425C77.6624 56.7174 74.568 56.4501 73.8292 56.198C75.2926 55.7361 76.6002 55.9525 77.8846 55.2376L95.4457 54.1672C98.5295 53.978 107.239 53.8741 108.783 51.6254C111.921 46.0728 109.823 36.2631 110.21 30.0714C110.769 21.125 96.7997 24.0222 91.0576 24.3062C79.4969 24.8787 67.5638 25.4049 55.9855 26.0928C52.4827 26.3006 49.2432 29.0497 49.0142 32.6901C48.6358 38.9931 48.909 45.5834 49.3269 51.8769C49.6611 56.5069 56.1336 55.9936 59.327 56.0931L61.6182 63.5359C62.7007 62.1834 63.9316 60.5558 65.133 59.3436L66.4066 60.3151C65.2521 61.6434 61.4918 67.9982 59.7707 63.7547C59.1421 62.2052 58.6712 59.6175 58.2811 57.9056Z" fill="var(--fill-0, #020101)"/>
<path id="Vector_99" d="M65.133 59.3437C69.3131 54.6108 71.827 55.2469 77.8844 55.2377C76.6002 55.9526 75.2925 55.7362 73.8292 56.1981C74.5679 56.4502 77.6624 56.7175 78.6892 56.8426C76.1962 57.2956 71.8551 57.2438 69.2281 57.2201C67.8692 58.4459 67.5116 58.8521 66.4066 60.3152L65.133 59.3437Z" fill="var(--fill-0, #484647)"/>
<path id="Vector_100" d="M93.7745 36.1538C95.5321 35.6225 97.3889 36.6103 97.9309 38.3651C98.4738 40.1196 97.4975 41.9829 95.7473 42.5364C93.9805 43.0949 92.0968 42.1083 91.5497 40.3379C91.0027 38.5675 92.0011 36.6896 93.7745 36.1538Z" fill="var(--fill-0, #020101)"/>
<path id="Vector_101" d="M79.1381 36.7936C80.9476 36.5476 82.6106 37.823 82.843 39.6344C83.0755 41.4459 81.7884 43.1 79.9756 43.3193C78.1816 43.5364 76.5486 42.2648 76.3184 40.4722C76.0884 38.6794 77.3474 37.037 79.1381 36.7936Z" fill="var(--fill-0, #020101)"/>
<path id="Vector_102" d="M63.4609 37.68C65.1696 37.1253 67.0044 38.0634 67.5559 39.7737C68.1074 41.4841 67.1658 43.3173 65.4548 43.8656C63.7482 44.4121 61.9216 43.4734 61.3717 41.7678C60.8222 40.0624 61.7564 38.2336 63.4609 37.68Z" fill="var(--fill-0, #020101)"/>
<path id="Vector_103" d="M484.747 153.057C488.086 153.341 490.777 154.415 493.825 155.637C493.493 157.453 492.937 159.428 492.472 161.231L492.769 161.353C495.662 162.577 504.292 163.579 505.473 165.816C505.057 170.171 497.688 200.59 495.984 202.307C493.657 202.976 486.02 200.76 483.37 200.136C480.28 199.25 462.486 195.229 461.332 193.878C461.098 190.88 468.973 159.312 470.388 157.011C472.236 156.371 480.773 158.587 483.157 159.13L484.747 153.057Z" fill="var(--fill-0, #020101)"/>
<path id="Vector_104" d="M471.095 157.989C474.853 158.828 478.856 159.957 482.661 160.872C482.222 162.982 481.872 165.11 481.61 167.249C488.973 168.206 490.849 171.872 492.179 163.074C496.212 164.159 499.996 165.178 504.093 166.045C501.689 175.96 499.188 185.853 496.591 195.722C496.212 197.326 495.553 199.37 495.082 200.992C485.596 199.121 471.68 195.486 462.463 192.924C466.061 182.866 468.117 168.319 471.095 157.989Z" fill="var(--fill-0, #FFFEFD)"/>
<path id="Vector_105" d="M474.52 171.485L474.718 171.475C476.025 171.393 477.229 171.69 479.036 172.165C483.833 173.424 489.462 174.451 494.139 176.153C494.352 176.499 494.528 176.784 494.668 177.012C492.478 177.516 479.059 173.658 476.057 172.968C474.936 172.71 474.918 172.327 474.52 171.485Z" fill="var(--fill-0, #020101)"/>
<path id="Vector_106" d="M473.348 178.48C475.764 178.199 488.36 181.752 491.521 182.676C492.39 182.931 492.264 183.04 492.593 183.779C490.501 184.293 477.567 180.523 474.825 179.913C473.749 179.674 473.758 179.309 473.348 178.48Z" fill="var(--fill-0, #020101)"/>
<path id="Vector_107" d="M471.914 185.164C475.764 185.485 484.105 187.969 488.129 189.136C488.824 189.336 488.891 189.931 489.128 190.574C487.5 190.517 473.181 187.084 471.91 185.998L471.914 185.164Z" fill="var(--fill-0, #020101)"/>
<path id="Vector_108" d="M485.388 154.206C487.491 155.1 490.235 155.589 492.508 156.08C491.487 159.177 490.388 164.08 489.711 167.308L489.459 167.568C488.3 167.614 484.632 166.234 483.315 165.793C484.086 161.945 484.778 158.082 485.388 154.206Z" fill="var(--fill-0, #B4A1DD)"/>
<path id="Vector_109" d="M56.5777 153.796C57.6611 154.077 59.1329 154.812 59.3632 155.901C59.837 158.143 66.3126 177.882 64.1699 178.823C57.8484 181.599 49.2669 183.174 42.4635 185.27C40.9092 185.19 39.9338 185.056 39.3817 183.352C37.9313 178.875 36.8682 174.22 35.684 169.665C35.0318 167.156 33.6881 162.928 34.738 160.487C37.2782 158.364 52.0265 155.259 56.5777 153.796Z" fill="var(--fill-0, #020101)"/>
<path id="Vector_110" d="M56.5426 155.694L57.2703 155.834C58.7491 157.228 62.4851 174.57 63.113 177.51C57.8329 179.327 48.2219 181.83 42.6189 183.131L41.8195 183.092C40.2768 181.415 35.6461 163.703 36.3981 161.482C37.8545 160.761 53.4819 156.64 56.5426 155.694Z" fill="var(--fill-0, #FB8CBD)"/>
<path id="Vector_111" d="M53.3967 163.456C53.5966 163.582 54.0697 164.011 54.2757 164.188C55.3272 166.989 55.7952 167.741 55.8895 170.774C55.3492 171.848 55.3306 171.612 54.1389 172.244C52.4788 171.717 51.6189 166.307 51.9674 164.729C52.1153 164.062 52.8613 163.785 53.3967 163.456Z" fill="var(--fill-0, #020101)"/>
<path id="Vector_112" d="M44.1782 165.885C46.397 166.911 46.8758 170.94 46.8986 173.15C46.9068 173.948 46.2871 174.179 45.6899 174.651L44.8796 174.336C43.7546 173.246 42.9365 169.299 42.9212 167.72C42.9124 166.774 43.5195 166.472 44.1782 165.885Z" fill="var(--fill-0, #020101)"/>
<path id="Vector_113" d="M18.3339 145.096C20.1227 145.129 25.5289 148.294 26.595 149.711L26.4202 150.767C24.3739 150.836 19.6204 148.011 18.1985 146.405C17.9201 146.091 18.2215 145.495 18.3339 145.096Z" fill="var(--fill-0, #020101)"/>
<path id="Vector_114" d="M481.509 10.0147L482.318 10.3212L482.497 11.008C481.774 12.551 477.015 14.8827 475.369 15.7992L474.61 15.5597L474.282 14.9169C475.087 13.0384 479.595 10.8668 481.509 10.0147Z" fill="var(--fill-0, #020101)"/>
<path id="Vector_115" d="M15.0348 158.64C16.8766 158.524 23.0753 157.627 23.8453 159.45L23.4708 160.358C21.0045 160.451 17.6198 161.152 15.4187 160.39C14.7528 159.583 14.9234 159.967 15.0348 158.64Z" fill="var(--fill-0, #020101)"/>
<path id="Vector_116" d="M31.1025 135.288C33.2718 136.108 35.8138 142.153 35.2765 144.171L34.3997 144.143C32.8239 142.8 30.4448 137.383 31.1025 135.288Z" fill="var(--fill-0, #020101)"/>
<path id="Vector_117" d="M477.036 23.3658C479.257 23.3209 484.687 22.8161 486.149 24.1705L486.086 25.1463C483.363 25.4831 480.337 25.716 477.683 25.0598C476.904 24.3894 477.137 24.7113 477.036 23.3658Z" fill="var(--fill-0, #020101)"/>
<path id="Vector_118" d="M472.803 305.676C473.498 305.788 473.243 305.735 473.875 306.183L473.91 306.818C472.704 308.373 468.549 310.221 466.648 311.156C465.764 310.764 466.023 311.075 465.685 310.348C466.48 308.635 470.969 306.642 472.803 305.676Z" fill="var(--fill-0, #020101)"/>
<path id="Vector_119" d="M468.138 6.96886e-06C468.827 0.0985738 468.792 0.133957 469.377 0.538335C469.857 2.48029 467.22 6.68108 466.177 8.68875C465.568 8.61041 465.573 8.55575 465.04 8.22024C464.737 6.362 467.248 1.84182 468.138 6.96886e-06Z" fill="var(--fill-0, #020101)"/>
<path id="Vector_120" d="M464.295 295.841L464.867 296.305C465.218 298.412 462.024 302.349 460.711 304.194L459.949 303.444C459.895 301.214 462.896 297.524 464.295 295.841Z" fill="var(--fill-0, #020101)"/>
</g>
<defs>
<filter id="filter0_f_0_45" x="56.7766" y="-8.08818" width="427.4" height="396.4" filterUnits="userSpaceOnUse" color-interpolation-filters="sRGB">
<feFlood flood-opacity="0" result="BackgroundImageFix"/>
<feBlend mode="normal" in="SourceGraphic" in2="BackgroundImageFix" result="shape"/>
<feGaussianBlur stdDeviation="16.35" result="effect1_foregroundBlur_0_45"/>
</filter>
<radialGradient id="paint0_radial_0_45" cx="0" cy="0" r="1" gradientUnits="userSpaceOnUse" gradientTransform="translate(270.477 190.112) rotate(90) scale(165.5 181)">
<stop stop-color="#E3D6FF"/>
<stop offset="1" stop-color="#F7EEFF"/>
</radialGradient>
<clipPath id="clip0_0_45">
<rect width="505.477" height="355.867" fill="white"/>
</clipPath>
</defs>
</svg>
