<svg preserveAspectRatio="none" width="100%" height="100%" overflow="visible" style="display: block;" viewBox="0 0 34 34" fill="none" xmlns="http://www.w3.org/2000/svg">
<g id="LogoMark">
<path id="Vector" d="M27.603 4.39956C29.2592 4.35488 30.5832 6.0834 29.9263 7.58756C29.4668 8.63997 28.9221 9.68427 28.4081 10.7147L25.6152 16.3314L24.2848 18.9921C24.1598 19.2407 23.962 19.7626 23.7937 19.9515C23.5249 20.2531 23.1174 20.5929 22.8168 20.8727C22.0652 21.5726 21.3022 22.2614 20.5495 22.9589C20.3494 23.1444 19.98 23.4626 19.8088 23.6404C19.6195 23.8374 19.3375 24.4026 19.1449 24.6655C18.4679 25.5891 17.4843 26.4162 16.4041 26.8402C15.1666 27.3259 13.5817 27.3238 12.3561 26.824C11.1166 28.0612 9.12685 28.5885 7.46287 27.7718C7.42976 27.7557 7.40985 27.6431 7.42036 27.606C7.45734 27.4751 7.58766 27.4222 7.70813 27.3557C8.1786 27.533 8.64233 27.6 9.14289 27.6165C10.3029 27.6352 11.0091 27.2423 11.9053 26.574C11.0032 26.1966 10.2964 25.1587 10.6202 24.1854C11.0715 22.829 12.9747 23.0362 13.2741 24.398C13.4342 25.1263 13.0979 25.767 12.7139 26.3816C13.3066 26.5914 13.9692 26.7411 14.6127 26.6962C16.6468 26.5542 18.3545 25.2628 19.2178 23.4971C19.3066 23.3154 19.3218 22.5337 19.345 22.269C19.4303 21.2986 19.5376 20.3187 19.5765 19.3448C19.5998 18.8072 19.6058 18.1311 19.7553 17.6237C19.8729 17.2446 20.1425 16.9135 20.3066 16.5599C21.4664 14.0614 22.7432 11.6107 23.9453 9.13066C24.0126 8.99176 24.0679 8.83174 24.1392 8.69738C24.5187 7.98299 24.8403 7.24467 25.226 6.53355C25.4675 6.08415 25.6194 5.57953 25.9742 5.19173C26.4424 4.67051 26.9023 4.44916 27.603 4.39956Z" fill="var(--fill-0, black)"/>
<path id="Vector_2" d="M25.0874 7.96999C25.3019 8.06921 25.5155 8.22987 25.7416 8.32575C26.3793 8.59626 26.9805 8.93754 27.6143 9.21309C27.8645 9.32179 28.1117 9.42618 28.3578 9.54395C28.1466 10.1056 27.9828 10.3197 27.7372 10.8209L26.3251 13.6733L24.2752 17.765C24.04 18.2333 23.8765 18.6686 23.6162 19.1401C23.2715 18.8063 22.9936 18.7781 22.5358 18.8784C22.2163 18.1186 21.9785 18.0053 21.1664 18.2043C20.9964 17.8718 20.8116 17.6267 20.4469 17.4745C20.5365 17.3 20.6045 17.1242 20.6904 16.9509L22.0382 14.2195C23.0666 12.1706 24.1561 10.0619 25.0874 7.96999Z" fill="var(--fill-0, white)"/>
<path id="Vector_3" d="M25.5883 10.5493C25.7686 10.5549 25.9387 10.5612 25.9911 10.7572C25.955 10.9728 23.2742 16.4265 23.1008 16.5949C22.9155 16.5962 22.7387 16.5676 22.692 16.3679C22.7496 16.1299 22.9908 15.7179 23.1093 15.4854L23.8682 13.9823C23.9903 13.7395 24.0975 13.4813 24.2135 13.2331C24.3222 13.0007 24.4942 12.7309 24.5922 12.5058C24.8631 11.8835 25.1963 11.313 25.4709 10.6948C25.4961 10.6378 25.5413 10.5908 25.5883 10.5493Z" fill="var(--fill-0, black)"/>
<path id="Vector_4" d="M27.5114 4.93786C28.3249 4.88027 29.0147 5.33183 29.3633 6.03646C29.6052 6.51726 29.6057 7.08015 29.3646 7.56134C29.2626 7.76422 29.1354 7.93632 29.0591 8.15239L29.0554 8.16361C28.8026 8.02128 28.5768 7.93347 28.309 7.82104C28.2301 7.78722 28.1247 7.74582 28.0516 7.70523C27.3134 7.2942 26.5755 7.00184 25.8433 6.57249C25.9898 6.28756 26.0723 5.96105 26.2703 5.68265C26.6106 5.20438 26.9545 5.04988 27.5114 4.93786Z" fill="var(--fill-0, white)"/>
<path id="Vector_5" d="M20.2235 17.9373C20.9447 18.2946 20.515 18.7585 21.2212 18.7067C21.399 18.6936 21.638 18.631 21.8218 18.597C21.9433 18.798 22.0693 19.1431 22.1709 19.2863C22.235 19.3102 22.3896 19.3693 22.4649 19.3739C22.6835 19.3869 23.1434 19.2424 23.2867 19.4844C23.3177 19.5366 23.2946 19.645 23.2628 19.7022C23.1112 19.9767 22.7746 20.1768 22.5441 20.3946C22.4605 20.4737 22.3434 20.6047 22.2663 20.6645C21.9155 20.9419 21.5306 21.3492 21.1602 21.664C20.869 21.4363 20.3411 21.0875 19.9741 21.0507C19.9975 20.7179 20.0052 19.8482 20.0543 19.5826C20.0709 19.1938 20.1339 18.3088 20.2235 17.9373Z" fill="var(--fill-0, white)"/>
<path id="Vector_6" d="M20.0543 19.5826C20.4179 19.6046 20.7449 19.6646 21.1156 19.676C21.3995 19.9781 21.6731 20.2468 22.0214 20.4817C22.0953 20.5316 22.2121 20.5991 22.2663 20.6645C21.9155 20.9419 21.5306 21.3492 21.1602 21.664C20.869 21.4363 20.3411 21.0875 19.9741 21.0507C19.9975 20.7179 20.0052 19.8482 20.0543 19.5826Z" fill="var(--fill-0, #AD92D3)"/>
<path id="Vector_7" d="M11.7404 23.7629C12.0558 23.7452 12.2836 23.8041 12.4973 24.053C12.957 24.5883 12.7169 25.4024 12.3575 25.9246C12.3014 26.0059 12.2649 26.1058 12.1856 26.1693C11.6809 25.8005 11.2872 25.5535 11.1296 24.9067C11.043 24.5511 11.1617 24.2841 11.3591 23.9931C11.4711 23.828 11.5458 23.8023 11.7404 23.7629Z" fill="var(--fill-0, white)"/>
<path id="Vector_8" d="M25.5407 7.0652C25.8097 7.11228 26.4889 7.48181 26.7541 7.62274C26.9984 7.75265 27.3113 7.8697 27.5424 7.99153C28.0165 8.24186 28.3401 8.4199 28.8453 8.60983C28.7677 8.75417 28.6875 8.96437 28.6233 9.12018C28.4194 9.0943 27.9498 8.81932 27.7424 8.71836L26.2047 7.97564C25.9202 7.83864 25.6044 7.70614 25.3134 7.57309C25.3874 7.44537 25.48 7.2089 25.5407 7.0652Z" fill="var(--fill-0, white)"/>
<path id="Vector_9" d="M12.3736 14.5147C12.4071 14.5067 12.4405 14.5008 12.4748 14.4976C13.1621 14.4334 13.8429 14.5765 14.3834 15.0422C15.111 15.6693 16.0546 17.6121 16.3786 18.5518C16.5068 18.9239 16.6091 19.3168 16.6439 19.7109C16.6966 20.3076 16.5715 20.8962 16.1947 21.3595C15.6157 22.0715 14.6793 22.1431 13.8731 21.8322C13.4166 21.6562 12.918 21.339 12.4834 21.093C12.2475 20.9595 12.1197 20.7634 11.8252 20.7904C11.4688 20.8233 8.89596 21.3697 8.67906 21.5031C8.38796 21.6821 8.16335 22.0517 7.94953 22.3182C7.4636 22.8703 6.91349 23.5205 6.16415 23.6577C5.66386 23.7492 5.22177 23.6455 4.80589 23.3399C4.29235 22.9625 4.01685 22.377 3.91156 21.7496C3.72484 20.637 4.00575 17.7143 4.62649 16.808C4.95346 16.3305 5.34457 16.0123 5.88181 15.8261C6.21691 15.7099 6.61425 15.621 6.96772 15.6797C7.13632 15.7077 7.3236 15.7632 7.49459 15.7551C7.91831 15.7351 8.37617 15.6085 8.79473 15.5324C9.53482 15.3978 10.336 15.2992 11.0511 15.059C11.5602 14.8879 11.7566 14.6234 12.3736 14.5147Z" fill="var(--fill-0, black)"/>
<path id="Vector_10" d="M12.3798 14.9992C12.4069 14.9933 12.4329 14.9893 12.4606 14.9866C12.922 14.9411 13.5446 15.0931 13.9068 15.4091C14.6105 16.0227 15.9202 18.7605 15.995 19.7424C16.0237 20.1199 15.8948 20.6318 15.6543 20.9196C15.491 21.115 15.264 21.2492 15.0248 21.3157C13.9909 21.603 13.0474 20.6788 12.1566 20.3008C12.0405 20.2515 11.8898 20.1817 11.7634 20.1901C11.327 20.2194 10.8795 20.3471 10.4494 20.4304C9.95536 20.5261 8.72839 20.6704 8.32671 20.9061C8.06592 21.059 7.83768 21.407 7.63357 21.6334C7.21095 22.1229 6.6741 22.9207 6.05402 23.019C3.83849 23.3442 4.33931 20.0449 4.47689 18.8642C4.71255 16.8416 5.49424 15.9532 7.44065 16.2599C7.53046 16.274 8.33787 16.1303 8.49367 16.0924C9.34392 15.8858 10.222 15.7358 11.0782 15.5544C11.4968 15.4527 11.8467 15.1142 12.3798 14.9992Z" fill="var(--fill-0, #AD92D3)"/>
<path id="Vector_11" d="M6.73846 17.4677C6.81121 17.4539 7.0804 17.4487 7.16954 17.4455C7.23138 17.6977 7.2739 18.1986 7.29795 18.4614C8.25243 18.3985 8.36878 18.0953 8.40057 19.151C8.06888 19.2147 7.73399 19.2612 7.39728 19.2904C7.44097 19.5299 7.59261 20.0816 7.45522 20.259C7.38653 20.3476 7.25736 20.3623 7.15153 20.381C7.04098 20.4028 6.85183 20.4399 6.74905 20.4028C6.63511 20.256 6.58873 19.6339 6.57106 19.4308C6.27941 19.4648 5.88797 19.4975 5.59762 19.5088C5.32831 18.569 5.56995 18.6381 6.4375 18.5525C6.41048 18.3051 6.27866 17.7564 6.4131 17.5745C6.48385 17.4788 6.62166 17.48 6.73846 17.4677Z" fill="var(--fill-0, black)"/>
<path id="Vector_12" d="M12.8569 18.6188C13.0818 18.6101 13.2828 18.6908 13.3829 18.8968C13.4357 19.006 13.4421 19.1311 13.4008 19.245C13.3446 19.3994 13.2219 19.5039 13.0737 19.5724C12.5007 19.6894 12.2736 18.8721 12.8569 18.6188Z" fill="var(--fill-0, black)"/>
<path id="Vector_13" d="M12.7275 16.493C12.9722 16.5235 13.0134 16.5576 13.2084 16.6975C13.3498 17.1271 13.2335 17.2156 12.8469 17.4203C12.4793 17.5078 11.9488 16.8571 12.7275 16.493Z" fill="var(--fill-0, black)"/>
<path id="Vector_14" d="M11.7931 17.7165C12.0456 17.696 12.2684 17.8765 12.294 18.1222C12.3196 18.368 12.1386 18.5884 11.887 18.6178C11.7201 18.6373 11.5555 18.5674 11.4564 18.4352C11.3573 18.3029 11.3392 18.1288 11.409 17.9798C11.4788 17.8308 11.6256 17.7301 11.7931 17.7165Z" fill="var(--fill-0, black)"/>
<path id="Vector_15" d="M13.8585 17.513C14.1115 17.4923 14.3336 17.6759 14.354 17.9226C14.3744 18.1693 14.1854 18.3852 13.9322 18.4042C13.6803 18.4232 13.4601 18.24 13.4398 17.9944C13.4195 17.7489 13.6067 17.5336 13.8585 17.513Z" fill="var(--fill-0, black)"/>
<path id="Vector_16" d="M6.39968 10.3675C6.47506 10.36 6.65497 10.3602 6.6788 10.4472C6.85855 11.1034 7.00639 11.8421 7.02611 12.5202C7.0278 12.579 6.90213 12.6463 6.85704 12.6725C6.48601 12.6926 6.48787 12.5908 6.44619 12.2588C6.37524 11.6939 6.29163 11.1265 6.2317 10.5619C6.22314 10.4812 6.34243 10.4062 6.39968 10.3675Z" fill="var(--fill-0, black)"/>
<path id="Vector_17" d="M3.64846 12.3584C4.02472 12.3639 4.87262 13.2423 5.19977 13.491C5.35391 13.6083 5.25484 13.8197 5.11219 13.9317C5.0056 13.9502 4.89299 13.9327 4.80882 13.8623C4.42856 13.5407 4.02462 13.238 3.65197 12.9092C3.41116 12.6966 3.40574 12.5546 3.64846 12.3584Z" fill="var(--fill-0, black)"/>
</g>
</svg>
