<svg preserveAspectRatio="none" width="100%" height="100%" overflow="visible" style="display: block;" viewBox="0 0 22 22" fill="none" xmlns="http://www.w3.org/2000/svg">
<g id="LogoMark">
<path id="Vector" d="M17.8608 2.84677C18.9324 2.81786 19.7891 3.93632 19.3641 4.9096C19.0668 5.59057 18.7143 6.26629 18.3817 6.93304L16.5745 10.5674L15.7137 12.289C15.6328 12.4499 15.5048 12.7876 15.3959 12.9098C15.222 13.1049 14.9583 13.3248 14.7638 13.5059C14.2775 13.9587 13.7838 14.4044 13.2967 14.8558C13.1673 14.9758 12.9282 15.1817 12.8175 15.2967C12.695 15.4242 12.5125 15.7899 12.3879 15.96C11.9498 16.5577 11.3134 17.0928 10.6144 17.3672C9.81368 17.6815 8.78816 17.6801 7.99512 17.3567C7.19309 18.1572 5.90561 18.4984 4.82892 17.97C4.80749 17.9596 4.79461 17.8867 4.80141 17.8627C4.82534 17.778 4.90966 17.7438 4.98761 17.7007C5.29203 17.8155 5.5921 17.8588 5.91599 17.8695C6.66658 17.8816 7.12354 17.6274 7.70343 17.1949C7.11972 16.9507 6.66238 16.2792 6.87189 15.6494C7.16391 14.7717 8.39539 14.9058 8.58912 15.7869C8.69272 16.2582 8.47511 16.6728 8.22664 17.0704C8.61015 17.2062 9.03889 17.3031 9.45528 17.274C10.7715 17.1821 11.8764 16.3465 12.435 15.204C12.4925 15.0864 12.5023 14.5806 12.5174 14.4094C12.5725 13.7814 12.642 13.1474 12.6671 12.5172C12.6822 12.1694 12.6861 11.7319 12.7828 11.4036C12.8589 11.1583 13.0334 10.944 13.1396 10.7152C13.89 9.09855 14.7162 7.51281 15.494 5.90807C15.5376 5.8182 15.5733 5.71466 15.6195 5.62772C15.865 5.16546 16.0731 4.68773 16.3227 4.22759C16.479 3.9368 16.5773 3.61028 16.8068 3.35935C17.1098 3.02209 17.4074 2.87887 17.8608 2.84677Z" fill="var(--fill-0, black)"/>
<path id="Vector_2" d="M16.233 5.15705C16.3718 5.22125 16.51 5.32521 16.6563 5.38725C17.069 5.56229 17.458 5.78311 17.8681 5.96141C18.03 6.03175 18.1899 6.09929 18.3492 6.1755C18.2125 6.53892 18.1065 6.67745 17.9476 7.00176L17.0339 8.84743L15.7075 11.495C15.5553 11.798 15.4495 12.0797 15.2811 12.3848C15.058 12.1688 14.8782 12.1505 14.582 12.2154C14.3753 11.7238 14.2214 11.6505 13.6959 11.7793C13.5859 11.5641 13.4663 11.4055 13.2303 11.307C13.2883 11.1941 13.3323 11.0804 13.3879 10.9682L14.26 9.20085C14.9254 7.87509 15.6304 6.51064 16.233 5.15705Z" fill="var(--fill-0, white)"/>
<path id="Vector_3" d="M16.5571 6.82602C16.6738 6.82964 16.7839 6.83372 16.8178 6.96054C16.7944 7.10005 15.0598 10.6289 14.9476 10.7379C14.8277 10.7387 14.7133 10.7202 14.6831 10.591C14.7203 10.437 14.8764 10.1704 14.9531 10.02L15.4441 9.04737C15.5231 8.89026 15.5925 8.72319 15.6676 8.56259C15.7379 8.41222 15.8492 8.23764 15.9126 8.09199C16.0879 7.68932 16.3035 7.32018 16.4812 6.92017C16.4975 6.88328 16.5267 6.85287 16.5571 6.82602Z" fill="var(--fill-0, black)"/>
<path id="Vector_4" d="M17.8015 3.19509C18.3279 3.15782 18.7742 3.45001 18.9998 3.90594C19.1563 4.21705 19.1566 4.58127 19.0006 4.89263C18.9346 5.02391 18.8523 5.13527 18.8029 5.27508L18.8006 5.28234C18.637 5.19024 18.4909 5.13342 18.3176 5.06067C18.2665 5.03879 18.1983 5.012 18.151 4.98574C17.6734 4.71978 17.1959 4.5306 16.7221 4.25279C16.8169 4.06842 16.8703 3.85715 16.9984 3.67701C17.2186 3.36754 17.4411 3.26757 17.8015 3.19509Z" fill="var(--fill-0, white)"/>
<path id="Vector_5" d="M13.0858 11.6065C13.5525 11.8377 13.2744 12.1379 13.7314 12.1043C13.8464 12.0959 14.0011 12.0554 14.12 12.0334C14.1986 12.1634 14.2801 12.3867 14.3459 12.4794C14.3874 12.4948 14.4874 12.5331 14.5361 12.5361C14.6776 12.5445 14.9751 12.451 15.0679 12.6076C15.0879 12.6413 15.073 12.7115 15.0524 12.7485C14.9543 12.9261 14.7365 13.0556 14.5874 13.1965C14.5333 13.2477 14.4575 13.3325 14.4076 13.3711C14.1806 13.5506 13.9316 13.8142 13.6919 14.0179C13.5035 13.8705 13.1619 13.6449 12.9244 13.621C12.9396 13.4057 12.9445 12.843 12.9763 12.6711C12.9871 12.4195 13.0278 11.8469 13.0858 11.6065Z" fill="var(--fill-0, white)"/>
<path id="Vector_6" d="M12.9763 12.6711C13.2116 12.6853 13.4232 12.7242 13.663 12.7315C13.8467 12.927 14.0238 13.1009 14.2491 13.2529C14.297 13.2852 14.3725 13.3288 14.4076 13.3711C14.1806 13.5506 13.9316 13.8142 13.6919 14.0179C13.5035 13.8705 13.1619 13.6449 12.9244 13.621C12.9396 13.4057 12.9445 12.843 12.9763 12.6711Z" fill="var(--fill-0, #AD92D3)"/>
<path id="Vector_7" d="M7.59673 15.376C7.80081 15.3645 7.94821 15.4027 8.08649 15.5637C8.38394 15.9101 8.22858 16.4368 7.99603 16.7747C7.95973 16.8273 7.93611 16.892 7.8848 16.9331C7.55823 16.6944 7.30348 16.5346 7.20151 16.1161C7.14547 15.886 7.22228 15.7132 7.35001 15.5249C7.42248 15.4181 7.47081 15.4015 7.59673 15.376Z" fill="var(--fill-0, white)"/>
<path id="Vector_8" d="M16.5263 4.5716C16.7004 4.60206 17.1399 4.84117 17.3115 4.93236C17.4696 5.01642 17.672 5.09216 17.8216 5.17099C18.1283 5.33297 18.3377 5.44817 18.6646 5.57107C18.6144 5.66446 18.5625 5.80047 18.521 5.90129C18.389 5.88455 18.0852 5.70662 17.951 5.64129L16.956 5.16071C16.7719 5.07206 16.5676 4.98633 16.3793 4.90023C16.4271 4.81759 16.4871 4.66458 16.5263 4.5716Z" fill="var(--fill-0, white)"/>
<path id="Vector_9" d="M8.00645 9.39186C8.02812 9.38669 8.04974 9.38287 8.07193 9.3808C8.51665 9.33926 8.95717 9.43185 9.30691 9.73319C9.77771 10.139 10.3883 11.3961 10.5979 12.0041C10.6809 12.2449 10.7471 12.4991 10.7696 12.7541C10.8037 13.1402 10.7227 13.5211 10.4789 13.8209C10.1043 14.2816 9.49837 14.3279 8.97671 14.1267C8.68133 14.0128 8.35871 13.8076 8.07749 13.6484C7.92485 13.562 7.84216 13.4351 7.6516 13.4526C7.42099 13.4739 5.75621 13.8275 5.61586 13.9138C5.4275 14.0296 5.28217 14.2687 5.14381 14.4412C4.82939 14.7984 4.47343 15.2191 3.98857 15.3079C3.66485 15.3671 3.37879 15.3 3.10969 15.1023C2.7774 14.8581 2.59914 14.4792 2.53101 14.0733C2.41019 13.3534 2.59196 11.4622 2.99361 10.8758C3.20518 10.5668 3.45825 10.3609 3.80588 10.2404C4.02271 10.1652 4.27981 10.1077 4.50852 10.1457C4.61762 10.1638 4.7388 10.1997 4.84944 10.1945C5.12361 10.1815 5.41987 10.0996 5.69071 10.0504C6.16959 9.96328 6.688 9.89948 7.15071 9.74406C7.48013 9.63335 7.60721 9.4622 8.00645 9.39186Z" fill="var(--fill-0, black)"/>
<path id="Vector_10" d="M8.01046 9.70536C8.02799 9.70155 8.04482 9.69896 8.06274 9.69721C8.36129 9.66777 8.76415 9.76612 8.99852 9.97059C9.45385 10.3676 10.3013 12.1391 10.3497 12.7745C10.3683 13.0188 10.2849 13.35 10.1293 13.5362C10.0236 13.6626 9.87671 13.7495 9.72193 13.7925C9.05294 13.9784 8.44244 13.3804 7.86604 13.1358C7.79091 13.1039 7.6934 13.0587 7.61161 13.0642C7.32924 13.0831 7.03968 13.1658 6.76138 13.2197C6.4417 13.2816 5.64778 13.375 5.38787 13.5275C5.21912 13.6264 5.07144 13.8516 4.93937 13.9981C4.66591 14.3148 4.31854 14.831 3.91731 14.8946C2.48373 15.1051 2.80779 12.9702 2.89681 12.2062C3.0493 10.8975 3.5551 10.3227 4.81454 10.5211C4.87265 10.5302 5.39509 10.4373 5.4959 10.4127C6.04607 10.279 6.61424 10.182 7.16825 10.0646C7.43911 9.99881 7.66551 9.77978 8.01046 9.70536Z" fill="var(--fill-0, #AD92D3)"/>
<path id="Vector_11" d="M4.36018 11.3026C4.40725 11.2937 4.58143 11.2903 4.63911 11.2883C4.67913 11.4515 4.70664 11.7756 4.7222 11.9456C5.33981 11.9049 5.41509 11.7087 5.43566 12.3918C5.22104 12.433 5.00435 12.4631 4.78648 12.482C4.81475 12.637 4.91287 12.994 4.82397 13.1088C4.77952 13.1661 4.69594 13.1756 4.62746 13.1877C4.55593 13.2018 4.43354 13.2258 4.36703 13.2018C4.29331 13.1068 4.2633 12.7043 4.25186 12.5729C4.06315 12.5949 3.80986 12.616 3.62199 12.6233C3.44773 12.0152 3.60409 12.0599 4.16544 12.0046C4.14796 11.8445 4.06266 11.4894 4.14965 11.3717C4.19543 11.3098 4.2846 11.3106 4.36018 11.3026Z" fill="var(--fill-0, black)"/>
<path id="Vector_12" d="M8.31917 12.0475C8.46469 12.0418 8.59475 12.094 8.65952 12.2273C8.69369 12.298 8.69783 12.3789 8.67111 12.4526C8.63474 12.5526 8.55535 12.6202 8.45945 12.6645C8.08869 12.7402 7.94174 12.2114 8.31917 12.0475Z" fill="var(--fill-0, black)"/>
<path id="Vector_13" d="M8.23544 10.6719C8.39378 10.6917 8.42043 10.7137 8.54661 10.8043C8.63811 11.0822 8.56285 11.1395 8.3127 11.272C8.07484 11.3286 7.73158 10.9075 8.23544 10.6719Z" fill="var(--fill-0, black)"/>
<path id="Vector_14" d="M7.63083 11.4636C7.79421 11.4504 7.93838 11.5671 7.95494 11.7261C7.97151 11.8852 7.85439 12.0278 7.69159 12.0468C7.58359 12.0594 7.47709 12.0142 7.41296 11.9287C7.34884 11.8431 7.33713 11.7304 7.38229 11.634C7.42746 11.5376 7.52245 11.4724 7.63083 11.4636Z" fill="var(--fill-0, black)"/>
<path id="Vector_15" d="M8.96726 11.3319C9.13097 11.3185 9.27468 11.4373 9.28788 11.597C9.30108 11.7566 9.17879 11.8963 9.01495 11.9086C8.85196 11.9209 8.70948 11.8024 8.69634 11.6434C8.68321 11.4846 8.80433 11.3453 8.96726 11.3319Z" fill="var(--fill-0, black)"/>
<path id="Vector_16" d="M4.14097 6.70838C4.18974 6.70353 4.30616 6.70366 4.32158 6.75995C4.43789 7.18455 4.53355 7.66253 4.54631 8.10131C4.5474 8.13935 4.46608 8.1829 4.43691 8.19985C4.19683 8.21286 4.19803 8.14699 4.17106 7.93216C4.12516 7.56664 4.07105 7.1995 4.03228 6.83417C4.02674 6.78195 4.10393 6.73342 4.14097 6.70838Z" fill="var(--fill-0, black)"/>
<path id="Vector_17" d="M2.36077 7.99661C2.60423 8.00017 3.15287 8.56855 3.36456 8.72947C3.46429 8.80537 3.40019 8.94216 3.30789 9.01463C3.23892 9.0266 3.16605 9.01528 3.11159 8.96972C2.86554 8.76163 2.60417 8.56576 2.36304 8.35301C2.20722 8.21545 2.20371 8.12357 2.36077 7.99661Z" fill="var(--fill-0, black)"/>
</g>
</svg>
